<svg width="76" height="76" viewBox="0 0 76 76" fill="none" xmlns="http://www.w3.org/2000/svg">
<circle cx="38" cy="38" r="38" fill="#E4E4E4"/>
<g clip-path="url(#clip0)">
<path d="M48.5116 39.612C48.4254 39.3175 48.204 39.0769 47.9098 38.9693C47.8504 38.9477 47.3691 38.7773 46.6214 38.668C49.8155 35.2692 48.761 31.2984 48.5116 30.5229C48.4254 30.2283 48.204 29.9878 47.9098 29.8802C47.7727 29.83 45.3819 28.987 42.6581 29.935C42.8119 29.304 42.9019 28.6103 42.9019 27.8492C42.9019 22.9794 39.2141 20.839 38.474 20.459C38.2048 20.3115 37.8779 20.298 37.594 20.4301C37.4109 20.5151 33.1087 22.574 33.1087 27.8492C33.1087 28.6119 33.199 29.307 33.3534 29.939C30.6248 28.9847 28.2276 29.8299 28.0903 29.8802C27.7961 29.9878 27.5747 30.2283 27.4885 30.5229C27.2392 31.2984 26.1846 35.2692 29.3787 38.668C28.6311 38.7773 28.1497 38.9477 28.0903 38.9693C27.7961 39.0769 27.5746 39.3176 27.4884 39.6121C27.2339 40.4038 26.1396 44.5253 29.5831 47.9688C31.5759 49.9616 33.7876 50.437 35.4446 50.437C36.0581 50.437 36.5943 50.3717 37.0165 50.2941V56.6841C37.0165 57.2233 37.4537 57.6606 37.9931 57.6606C38.5324 57.6606 38.9696 57.2233 38.9696 56.6841V50.2917C39.3938 50.3702 39.9353 50.4369 40.5554 50.4369C42.2123 50.4369 44.4243 49.9613 46.4169 47.9687C49.8605 44.5251 48.7661 40.4037 48.5116 39.612ZM37.0165 47.2499C36.9948 47.6932 36.9326 48.0657 36.8732 48.3336C35.8293 48.5655 33.2176 48.8411 30.9643 46.5877C28.7448 44.3684 28.9775 41.8 29.2232 40.6793C29.8795 40.5366 31.1603 40.3776 32.5782 40.8378C32.6716 40.8727 32.7647 40.9058 32.8572 40.9365C33.6082 41.2213 34.3879 41.6861 35.1269 42.425C36.535 43.8331 36.9555 45.381 37.0165 46.5983V47.2499ZM37.0165 38.1609C36.9948 38.6042 36.9326 38.9768 36.8732 39.2445C36.2264 39.3884 34.9777 39.548 33.5855 39.1135C33.4443 39.0591 33.304 39.0096 33.1647 38.9647C32.4363 38.677 31.6821 38.2165 30.9642 37.4986C28.7448 35.2793 28.9775 32.7109 29.2232 31.5903C30.266 31.3636 32.8851 31.0942 35.1269 33.336C35.1411 33.3503 35.154 33.3646 35.168 33.3788C35.2536 33.4749 35.3396 33.5668 35.4254 33.6551C36.5942 34.9745 36.9601 36.3833 37.0165 37.5094V38.1609V38.1609ZM38.0068 33.2611C37.7008 33.0648 37.2598 32.7413 36.8118 32.2736C36.7661 32.2235 36.7199 32.1734 36.6725 32.1235C35.8566 31.2172 35.0617 29.8268 35.0617 27.8492C35.0617 24.6659 37.0988 23.0142 38.0003 22.4392C38.9657 23.057 40.9486 24.7087 40.9486 27.8492C40.9486 29.7154 40.2484 31.0545 39.4874 31.9596C39.3292 32.118 39.1812 32.2779 39.0416 32.4387C38.6512 32.8183 38.2773 33.0889 38.0068 33.2611ZM38.9757 37.8444C38.9743 36.6979 39.2709 35.1808 40.4852 33.7559C40.629 33.613 40.7736 33.4592 40.917 33.2938C43.1579 31.0896 45.7392 31.3589 46.7765 31.5884C47.0223 32.708 47.2565 35.278 45.0358 37.4986C44.3192 38.2153 43.5664 38.6755 42.8394 38.9634C42.6977 39.0089 42.555 39.0592 42.4114 39.1145C41.0193 39.5484 39.7715 39.3882 39.1273 39.2448C39.055 38.9193 38.9784 38.4413 38.9756 37.8693C38.9756 37.861 38.9757 37.8527 38.9757 37.8444ZM45.0358 46.5877C42.782 48.8415 40.1702 48.5654 39.1288 48.3344C38.9018 47.2955 38.6273 44.6709 40.8732 42.425C41.5917 41.7064 42.3465 41.2458 43.0754 40.9581C43.2145 40.9134 43.3544 40.8642 43.4951 40.8099C44.8844 40.3763 46.1302 40.5345 46.7765 40.6773C47.0223 41.7971 47.2565 44.3671 45.0358 46.5877Z" fill="black"/>
<path d="M43.2105 14.544C41.5083 14.1831 39.7552 14 38 14C31.3223 14 25.0442 16.6004 20.3224 21.3224C15.6005 26.0442 13 32.3223 13 39C13 44.5643 14.8721 49.9958 18.2828 54.3692C17.8991 54.9628 17.6926 55.6542 17.6926 56.3778C17.6926 57.369 18.0786 58.3009 18.7795 59.0019C19.4804 59.7027 20.4123 60.0888 21.4035 60.0888C22.3947 60.0888 23.3267 59.7027 24.0275 59.0019C24.7285 58.3009 25.1145 57.369 25.1145 56.3778C25.1145 55.3866 24.7284 54.4548 24.0275 53.7538C23.3267 53.0528 22.3947 52.6668 21.4035 52.6668C20.816 52.6668 20.2497 52.8034 19.7396 53.0599C16.6486 49.0474 14.9531 44.0841 14.9531 39C14.9531 26.2919 25.2919 15.9531 38 15.9531C39.6193 15.9531 41.236 16.1219 42.8054 16.4547C43.3333 16.5665 43.8514 16.2295 43.9633 15.702C44.0752 15.1743 43.7382 14.656 43.2105 14.544ZM20.1605 55.1348C20.5032 54.792 20.9533 54.6207 21.4035 54.6207C21.8537 54.6207 22.3038 54.7921 22.6465 55.1348C22.9785 55.4667 23.1613 55.9082 23.1613 56.3777C23.1613 56.8473 22.9785 57.2887 22.6465 57.6207C21.9611 58.3063 20.8459 58.3061 20.1605 57.6207C19.8285 57.2888 19.6457 56.8473 19.6457 56.3777C19.6457 55.9082 19.8285 55.4668 20.1605 55.1348Z" fill="black"/>
<path d="M57.7172 23.6308C58.1009 23.0372 58.3074 22.3458 58.3074 21.6222C58.3074 20.631 57.9214 19.699 57.2205 18.9982C56.5196 18.2972 55.5877 17.9112 54.5965 17.9112C53.6053 17.9112 52.6733 18.2973 51.9725 18.9982C51.2716 19.699 50.8856 20.631 50.8856 21.6222C50.8856 22.6134 51.2716 23.5453 51.9725 24.2462C52.6733 24.9472 53.6053 25.3331 54.5965 25.3331C55.1841 25.3331 55.7503 25.1965 56.2605 24.94C59.3514 28.9526 61.0469 33.9159 61.0469 39C61.0469 51.7081 50.7081 62.0469 38 62.0469C36.6329 62.0469 35.2632 61.9264 33.9289 61.6886C33.3982 61.5942 32.8907 61.9476 32.7962 62.4787C32.7016 63.0097 33.0553 63.5168 33.5862 63.6114C35.0334 63.8693 36.5184 64 38 64C44.6777 64 50.9558 61.3995 55.6777 56.6777C60.3997 51.956 63 45.6777 63 39C63 33.4358 61.1279 28.0042 57.7172 23.6308ZM55.8396 22.8651C55.5076 23.1972 55.0661 23.38 54.5966 23.38C54.1271 23.38 53.6856 23.1973 53.3536 22.8651C52.6682 22.1798 52.6682 21.0647 53.3536 20.3792C53.6856 20.0472 54.1271 19.8644 54.5966 19.8644C55.0661 19.8644 55.5075 20.0472 55.8396 20.3792C56.1716 20.7111 56.3544 21.1526 56.3544 21.6222C56.3544 22.0917 56.1716 22.5331 55.8396 22.8651Z" fill="black"/>
<path d="M29.4194 60.3967L29.0506 61.301L29.4166 60.3956C28.9163 60.1937 28.3474 60.435 28.1452 60.935C27.9431 61.435 28.1846 62.0042 28.6846 62.2064L28.7148 62.2184C28.8299 62.2624 28.9485 62.2833 29.0651 62.2833C29.4584 62.2833 29.8302 62.0452 29.979 61.6568C30.172 61.153 29.9231 60.5896 29.4194 60.3967Z" fill="black"/>
<path d="M47.3578 15.8108L47.3404 15.8039C46.8397 15.6035 46.2714 15.8472 46.071 16.3479C45.8706 16.8487 46.1143 17.4169 46.615 17.6173L46.6262 17.6218C46.7461 17.6702 46.8698 17.6931 46.9917 17.6931C47.378 17.6931 47.7438 17.4623 47.8975 17.0821C48.0995 16.582 47.8579 16.0129 47.3578 15.8108Z" fill="black"/>
</g>
<defs>
<clipPath id="clip0">
<rect width="50" height="50" fill="white" transform="translate(13 14)"/>
</clipPath>
</defs>
</svg>
