<svg width="76" height="76" viewBox="0 0 76 76" fill="none" xmlns="http://www.w3.org/2000/svg">
<circle cx="38" cy="38" r="38" fill="#E4E4E4"/>
<path d="M15.9169 38.0063C15.7368 38.6305 15.5884 39.634 16.0561 40.5913C16.503 41.5054 17.3776 42.1432 18.6574 42.4917C20.0193 47.1402 21.9929 50.9298 24.5278 53.7607C27.8793 57.505 32.15 59.4906 37.2282 59.6724L38.5287 63.1406L35.4032 63.7657C35.2985 63.7867 35.1991 63.828 35.1104 63.8874C35.0217 63.9467 34.9456 64.023 34.8864 64.1118C34.8273 64.2006 34.7861 64.3001 34.7654 64.4048C34.7447 64.5095 34.7448 64.6172 34.7658 64.7219C34.7867 64.8265 34.828 64.926 34.8874 65.0146C34.9468 65.1033 35.023 65.1794 35.1118 65.2386C35.2006 65.2978 35.3002 65.3389 35.4048 65.3596C35.5095 65.3803 35.6172 65.3802 35.7219 65.3593L43.2383 63.8561L43.7733 64.9261C43.8206 65.0224 43.8864 65.1084 43.967 65.1791C44.0476 65.2498 44.1414 65.3039 44.243 65.3382C44.3446 65.3725 44.4519 65.3863 44.5589 65.3789C44.6659 65.3715 44.7703 65.343 44.8663 65.2951C44.9622 65.2471 45.0476 65.1806 45.1177 65.0995C45.1878 65.0183 45.2412 64.9241 45.2747 64.8223C45.3082 64.7204 45.3212 64.6129 45.313 64.506C45.3047 64.3991 45.2754 64.2948 45.2267 64.1993L44.4142 62.5743C44.3344 62.415 44.2045 62.2862 44.0444 62.2079C43.8843 62.1296 43.7029 62.1061 43.5282 62.1409L40.143 62.8178L38.948 59.6317C42.1403 59.296 45.2102 58.2198 47.9134 56.4889C50.807 54.6312 53.1416 52.0776 54.8526 48.8993C56.8808 45.1314 58.027 40.4762 58.2642 35.053C58.3581 35.0309 58.4519 35.0057 58.5451 34.9743C58.8958 34.8629 59.2141 34.6679 59.4725 34.406C59.731 34.1441 59.9218 33.8233 60.0285 33.4712C60.2652 32.7102 60.1307 31.7791 59.7016 31.207L59.125 30.4375H61.5625C61.6827 30.4375 61.8015 30.4108 61.9101 30.3594C62.0188 30.308 62.1147 30.2331 62.1909 30.1401C62.2671 30.0472 62.3217 29.9384 62.3509 29.8218C62.38 29.7052 62.3829 29.5835 62.3593 29.4656C61.8582 26.9601 60.2744 26.0309 59.0341 25.6927C58.7815 25.6244 58.5243 25.5743 58.2645 25.5428C58.2362 25.3819 58.2002 25.2154 58.1537 25.0451C58.9278 24.6191 59.5061 23.909 59.7666 23.0647C59.8884 22.7011 59.9212 22.3136 59.8621 21.9347C59.8031 21.5559 59.6541 21.1967 59.4275 20.8874C59.2006 20.5744 58.903 20.3196 58.5588 20.1436C58.2146 19.9677 57.8337 19.8756 57.4472 19.875H57.3608C57.1922 19.4001 56.8808 18.989 56.4694 18.698C56.0579 18.4071 55.5665 18.2506 55.0625 18.25H54.9233C54.7547 17.7751 54.4433 17.364 54.0319 17.073C53.6204 16.7821 53.129 16.6256 52.625 16.625H51C50.7845 16.625 50.5779 16.7106 50.4255 16.863C50.2731 17.0153 50.1875 17.222 50.1875 17.4375V22.0569C47.6347 23.3527 46.6073 26.6392 45.8749 28.9834C45.6198 29.7995 45.2805 30.8857 45.0191 31.2499H21.0848L14.7228 28.8643C14.609 28.8216 14.4871 28.805 14.366 28.8157C14.245 28.8264 14.1279 28.8642 14.0233 28.9261C13.9188 28.9881 13.8294 29.0727 13.7619 29.1738C13.6944 29.2748 13.6505 29.3897 13.6332 29.51C13.5989 29.7501 12.8664 35.1677 15.9169 38.0063ZM58.4771 32.9883C58.4465 33.095 58.389 33.192 58.3102 33.2701C58.2314 33.3481 58.1339 33.4047 58.0269 33.4342C57.6778 33.548 57.2985 33.5259 56.965 33.3722C56.8516 33.3255 56.7504 33.2532 56.6694 33.1611C56.5884 33.0689 56.5297 32.9594 56.4978 32.8409C56.4646 32.721 56.4594 32.5951 56.4827 32.4729C56.5059 32.3507 56.557 32.2354 56.6319 32.1361L57.5 30.9791L58.4018 32.1815C58.4822 32.2888 58.579 32.6604 58.4771 32.9883ZM58.6535 27.2736C59.0511 27.377 59.4202 27.5692 59.7329 27.8358C60.0456 28.1023 60.2938 28.4362 60.4588 28.8125H57.5V27.1216C57.8897 27.1188 58.2778 27.17 58.6535 27.2736V27.2736ZM51.8125 18.25H52.625C52.8404 18.2502 53.047 18.3359 53.1993 18.4882C53.3516 18.6406 53.4373 18.8471 53.4375 19.0625C53.4375 19.278 53.5231 19.4847 53.6755 19.637C53.8279 19.7894 54.0345 19.875 54.25 19.875H55.0625C55.2779 19.8752 55.4845 19.9609 55.6368 20.1132C55.7891 20.2656 55.8748 20.4721 55.875 20.6875C55.875 20.903 55.9606 21.1097 56.113 21.262C56.2654 21.4144 56.472 21.5 56.6875 21.5H57.4472C57.5769 21.4994 57.7048 21.53 57.8203 21.5891C57.9357 21.6482 58.0353 21.7342 58.1106 21.8397C58.1853 21.9412 58.2346 22.0592 58.2542 22.1837C58.2739 22.3082 58.2634 22.4355 58.2237 22.5551C58.0986 22.9713 57.8283 23.3288 57.4619 23.5625C57.3893 23.4599 57.3125 23.3582 57.2283 23.2587C56.2368 22.0917 54.688 21.5 52.625 21.5C52.3533 21.4996 52.0818 21.5177 51.8125 21.5543V18.25ZM47.4259 29.4681C48.5102 25.9977 49.65 23.125 52.625 23.125C54.2283 23.125 56.1274 23.5719 56.6116 25.5637C56.5641 25.5713 56.5351 25.5769 56.5282 25.5782C56.344 25.6151 56.1782 25.7146 56.0592 25.8599C55.9401 26.0051 55.875 26.1872 55.875 26.375V29.625C55.8751 29.8236 55.9482 30.0151 56.0804 30.1633L55.3323 31.1607C55.1094 31.4574 54.9573 31.8011 54.8874 32.1655C54.8176 32.53 54.8319 32.9055 54.9293 33.2636C55.0267 33.6217 55.2045 33.9528 55.4493 34.2316C55.6941 34.5105 55.9994 34.7298 56.3418 34.8727C56.441 34.9138 56.5401 34.95 56.6392 34.9812C56.4138 40.1337 55.3427 44.5392 53.4477 48.0809C51.8796 51.0113 49.7443 53.3657 47.1014 55.0786C42.5724 58.0143 38.044 58.0625 38 58.0625C27.6175 58.0625 22.7428 50.0523 20.4587 42.8272L23.8193 43.3873C24.9006 44.344 30.3497 48.8544 36.9394 48.8543C37.1836 48.8543 37.4295 48.848 37.6771 48.8353C41.6829 48.6278 45.2785 46.7174 48.364 43.1572C51.2235 39.8581 52.176 37.096 51.195 34.9476C50.5893 33.6211 49.2914 32.6264 47.3375 31.9913C47.0884 31.9101 46.837 31.8384 46.5849 31.7736C46.8892 31.1839 47.1354 30.3978 47.4259 29.4681ZM42.0625 32.875C46.781 32.875 49.1103 34.2943 49.7169 35.6227C50.4002 37.1192 49.5078 39.3565 47.1361 42.0929C44.3533 45.3032 41.1462 47.0256 37.6026 47.2117C32.0681 47.5038 27.1163 43.9742 25.3913 42.5823C27.3499 40.6819 33.4438 34.9206 37.3836 32.8747L42.0625 32.875ZM21.6688 32.875H34.2828C30.4336 35.5245 25.968 39.7536 24.2881 41.3872C23.3266 39.9714 21.4062 36.6314 21.6688 32.875ZM15.1679 30.7667L20.0596 32.6008C19.7418 36.3383 21.2835 39.6324 22.4253 41.5078L19.4586 41.0134C18.4413 40.807 17.7891 40.4281 17.5199 39.8856C17.1313 39.1024 17.5991 38.119 17.6012 38.1135C17.6864 37.9433 17.7091 37.7487 17.6655 37.5635C17.6219 37.3783 17.5147 37.2143 17.3625 37.1C15.3125 35.5624 15.118 32.4003 15.1679 30.7667Z" fill="black"/>
<path d="M53.4375 27.1875C53.8862 27.1875 54.25 26.8237 54.25 26.375C54.25 25.9263 53.8862 25.5625 53.4375 25.5625C52.9888 25.5625 52.625 25.9263 52.625 26.375C52.625 26.8237 52.9888 27.1875 53.4375 27.1875Z" fill="black"/>
</svg>
