<svg width="76" height="76" viewBox="0 0 76 76" fill="none" xmlns="http://www.w3.org/2000/svg">
<circle cx="38" cy="38" r="38" fill="#E4E4E4"/>
<path d="M50.3383 33.3717H48.1859C47.7732 33.3717 47.4388 33.7061 47.4388 34.1188C47.4388 34.5315 47.7733 34.8659 48.1859 34.8659H50.3383C50.751 34.8659 51.0853 34.5315 51.0853 34.1188C51.0853 33.7061 50.751 33.3717 50.3383 33.3717Z" fill="black"/>
<path d="M54.314 34.1188C54.314 29.2109 50.5157 25.1738 45.7043 24.7918V14.7471C45.7043 14.3344 45.3699 14 44.9572 14H32.0426C31.63 14 31.2956 14.3344 31.2956 14.7471V24.7922C26.4842 25.1741 22.686 29.211 22.686 34.1189V34.1191L22.6861 55.6428C22.6861 58.1746 24.5582 60.2768 26.9907 60.6391V64.2529C26.9907 64.6656 27.325 65 27.7377 65H49.2621C49.6748 65 50.0092 64.6656 50.0092 64.2529V60.6391C52.4405 60.277 54.3119 58.1767 54.3138 55.6467C54.3138 55.6454 54.314 55.6441 54.314 55.6428C54.314 55.6421 54.3139 55.6415 54.3139 55.6408L54.314 34.1188ZM32.7897 15.4941H44.2101V24.762L40.8615 24.7621V21.2044C40.8615 20.7918 40.5271 20.4574 40.1144 20.4574H36.8857C36.473 20.4574 36.1386 20.7918 36.1386 21.2044V24.7622L32.7897 24.7623V15.4941ZM39.3673 21.9515V24.762H37.6327V21.9515H39.3673ZM48.515 63.5059H28.4848V60.6947H48.515V63.5059ZM52.8197 54.8956H32.2952C31.8825 54.8956 31.5481 55.23 31.5481 55.6427C31.5481 56.0554 31.8825 56.3898 32.2952 56.3898H52.7402C52.3959 57.9941 50.9675 59.2005 49.262 59.2005H27.738C25.7763 59.2005 24.1803 57.6046 24.1803 55.6427L24.1802 34.8661H44.7048C45.1175 34.8661 45.4519 34.5317 45.4519 34.119C45.4519 33.7063 45.1175 33.3719 44.7048 33.3719H24.2166C24.5942 29.3857 27.9593 26.2563 32.0426 26.2563H44.9572C44.9585 26.2563 44.9597 26.2561 44.961 26.2561C49.2947 26.2582 52.8198 29.7845 52.8198 34.1188L52.8197 54.8956Z" fill="black"/>
<path d="M28.8141 54.8959H26.6616C26.2489 54.8959 25.9146 55.2303 25.9146 55.643C25.9146 56.0557 26.2489 56.3901 26.6616 56.3901H28.8141C29.2268 56.3901 29.5612 56.0557 29.5612 55.643C29.5612 55.2303 29.2267 54.8959 28.8141 54.8959Z" fill="black"/>
<path d="M43.506 46.4464C43.4978 46.3634 43.4906 46.2936 43.4884 46.2614V46.2616C43.1307 40.5376 39.0724 37.9021 38.8999 37.7927C38.6751 37.6503 38.3915 37.6382 38.1555 37.7607C37.9194 37.8833 37.7663 38.1223 37.7537 38.3881C37.6926 39.6667 37.1672 40.6839 36.7663 41.2832L36.3863 40.9032C36.229 40.7459 36.0087 40.6668 35.7885 40.6875C35.5671 40.7083 35.3665 40.8265 35.241 41.0101C34.3008 42.3871 33.6992 43.9693 33.5012 45.5856C33.4379 46.1011 33.4163 46.6063 33.4368 47.0873C33.4492 47.3773 33.4673 47.5647 33.491 47.6936C33.8188 50.1988 35.9677 52.0851 38.5 52.0851C41.2856 52.0851 43.552 49.8188 43.552 47.0332C43.552 46.9148 43.5337 46.724 43.506 46.4464ZM38.5 50.5909C36.7107 50.5909 35.1932 49.2545 34.9702 47.4825C34.9691 47.4742 34.9675 47.4631 34.9662 47.4549C34.9622 47.4299 34.6214 45.1584 35.9994 42.6294L36.3048 42.9348C36.4449 43.075 36.6349 43.1537 36.8331 43.1537C36.8334 43.1537 36.8338 43.1537 36.8341 43.1537C37.0326 43.1534 37.2228 43.0742 37.3628 42.9334C37.4214 42.8746 38.5571 41.7131 39.0398 39.8268C40.1265 40.8711 41.7873 42.9949 41.9972 46.3547V46.3549C41.9997 46.3947 42.0084 46.4859 42.0193 46.5947C42.0314 46.7162 42.0567 46.9691 42.0578 47.0331C42.0578 48.9949 40.4619 50.5909 38.5 50.5909Z" fill="black"/>
</svg>
