<svg width="76" height="76" viewBox="0 0 76 76" fill="none" xmlns="http://www.w3.org/2000/svg">
<circle cx="38" cy="38" r="38" fill="#E4E4E4"/>
<g clip-path="url(#clip0)">
<path d="M58.2997 41.5002H56.1527L54.7997 21.8527C54.7744 21.4848 54.4685 21.1997 54.0997 21.2003H49.8997C49.5308 21.1997 49.225 21.4848 49.1996 21.8527L47.8466 41.5002H46.4V37.3002C46.4 36.9139 46.0865 36.6001 45.7002 36.6001C45.5407 36.5998 45.3864 36.6542 45.2623 36.7536L39.3999 41.4435V37.3002C39.3999 36.9139 39.0867 36.6001 38.7001 36.6001C38.5409 36.5998 38.3866 36.6542 38.2625 36.7536L32.4001 41.4435V37.3002C32.4001 36.9139 32.0868 36.6001 31.7003 36.6001C31.5411 36.5998 31.3865 36.6542 31.2627 36.7536L25.4003 41.4435V37.3002C25.4 36.9139 25.0865 36.6003 24.7002 36.6003C24.5728 36.6003 24.4484 36.6349 24.3395 36.7003L17.3394 40.9003C17.1289 41.027 17 41.2543 17 41.5002V58.3002C17 58.6867 17.3135 59 17.7001 59H58.2997C58.6862 59 58.9997 58.6867 58.9997 58.3002V42.2003C58.9997 41.8134 58.6862 41.5002 58.2997 41.5002ZM50.5533 22.6002H53.446L54.7498 41.5002H49.2496L50.5533 22.6002ZM40.7996 57.6001V49.2001H44.9996V57.6001H40.7996ZM57.5998 57.6001H46.4V48.5C46.4 48.1137 46.0862 47.8002 45.6997 47.8002H40.0997C39.7132 47.8002 39.3997 48.1137 39.3997 48.5V57.6001H18.3999V41.8965L23.9998 38.5365V42.9001C23.9998 43.2869 24.3131 43.6002 24.6997 43.6007C24.8586 43.6007 25.0132 43.5463 25.1375 43.4469L30.9999 38.757V42.9001C30.9999 43.2869 31.3129 43.6002 31.6997 43.6007C31.8587 43.6007 32.013 43.5463 32.1373 43.4471L37.9997 38.7573V42.9003C37.9997 43.2869 38.3127 43.6007 38.6996 43.6007C38.8585 43.6007 39.0128 43.5463 39.1372 43.4471L44.9996 38.7573V42.2003C44.9996 42.5871 45.3131 42.9003 45.6997 42.9003H57.5993V57.6001H57.5998Z" fill="black"/>
<path d="M40.795 18.4004C41.0495 18.5368 41.2794 18.7147 41.4756 18.9267C41.868 19.4053 42.4269 19.717 43.0398 19.8003C43.6855 19.7181 44.2751 19.3928 44.6891 18.8903C44.8663 18.7045 45.0644 18.5401 45.28 18.4004C45.4241 18.4068 45.8014 18.7601 46.0045 18.9498C46.3821 19.4171 46.9245 19.7214 47.5197 19.8003C48.2072 19.7132 48.8356 19.3684 49.2783 18.8357C49.4498 18.6747 49.7094 18.4304 49.7597 18.4004C50.1355 18.4004 50.2216 18.525 50.4529 18.8583C50.7566 19.4322 51.3503 19.7939 51.9999 19.8003C52.3862 19.8003 52.6997 19.4868 52.6997 19.1005C52.6997 18.7137 52.3862 18.4004 51.9999 18.4004C51.8597 18.4004 51.8325 18.3907 51.6051 18.0623C51.2334 17.3945 50.5236 16.9862 49.7597 17.0003C49.1934 17.079 48.6782 17.3702 48.3193 17.8152C48.0868 18.0344 47.6971 18.4004 47.5492 18.4038C47.3323 18.2725 47.1344 18.1126 46.9596 17.9288C46.5387 17.4161 45.9378 17.0841 45.2798 17.0003C44.673 17.0831 44.1203 17.3922 43.7319 17.8654C43.5356 18.0762 43.3087 18.2564 43.0593 18.4004C42.826 18.2666 42.6137 18.0995 42.4294 17.9034C42.0203 17.4066 41.4379 17.0841 40.7996 17.0003C40.4132 16.999 40.0985 17.3112 40.0972 17.698C40.0959 18.0844 40.4084 18.3992 40.795 18.4004Z" fill="black"/>
<path d="M24.7001 49.2001H21.8998C21.5132 49.2001 21.2 49.5136 21.2 49.8999V54.0999C21.2 54.4868 21.5132 54.8 21.8998 54.8H24.7001C25.0864 54.8 25.4 54.4868 25.4 54.0999V49.8999C25.4 49.5136 25.0864 49.2001 24.7001 49.2001ZM23.9998 53.4001H22.5999V50.6003H23.9998V53.4001Z" fill="black"/>
<path d="M30.3001 49.2001H27.5C27.1132 49.2001 26.7999 49.5136 26.7999 49.8999V54.0999C26.7999 54.4868 27.1132 54.8 27.5 54.8H30.3001C30.6864 54.8 30.9999 54.4868 30.9999 54.0999V49.8999C30.9999 49.5136 30.6864 49.2001 30.3001 49.2001ZM29.5998 53.4001H28.1998V50.6003H29.5998V53.4001Z" fill="black"/>
<path d="M35.9001 49.2001H33.1C32.7132 49.2001 32.3999 49.5136 32.3999 49.8999V54.0999C32.3999 54.4868 32.7132 54.8 33.1 54.8H35.9001C36.2864 54.8 36.5999 54.4868 36.5999 54.0999V49.8999C36.5999 49.5136 36.2864 49.2001 35.9001 49.2001ZM35.1997 53.4001H33.7998V50.6003H35.1997V53.4001Z" fill="black"/>
</g>
<defs>
<clipPath id="clip0">
<rect width="42" height="42" fill="white" transform="translate(17 17)"/>
</clipPath>
</defs>
</svg>
