<svg id="Capa_1" enable-background="new 0 0 512.004 512.004" height="512" viewBox="0 0 512.004 512.004" width="512" xmlns="http://www.w3.org/2000/svg"><path d="m223.255 156.269 74.287 74.288c3.209 3.21 8.084 3.976 12.098 1.984 4.043-2.006 6.35-6.36 5.735-10.851-2.591-18.622-8.154-36.595-16.535-53.419-8.37-16.814-19.355-32.085-32.653-45.393l-4.75-4.746 2.802-2.802c5.613-5.613 6.366-14.262 2.283-20.704l16.196-32.585c2.966-5.969 1.792-13.146-2.921-17.858l-8.501-8.5c-4.711-4.712-11.889-5.888-17.859-2.921l-32.585 16.195c-6.443-4.083-15.091-3.329-20.704 2.284l-2.799 2.799-4.75-4.75c-26.544-26.534-61.635-44.002-98.846-49.19-4.712-.657-9.288 1.976-11.117 6.409-1.625 3.938-.721 8.426 2.288 11.417l74.286 74.296c-4.827 5.202-5.721 12.746-2.671 18.815l-48.371 54.65c-2.745 3.102-2.456 7.841.646 10.587 3.091 2.736 7.833 2.465 10.587-.646l47.2-53.327 26.576 26.575-169.865 150.35c-1.975 1.75-4.984 1.658-6.851-.209-1.866-1.866-1.958-4.875-.208-6.852l79.981-90.364c2.745-3.102 2.456-7.841-.646-10.587-3.101-2.746-7.842-2.457-10.587.646l-79.98 90.363c-6.996 7.902-6.63 19.938.833 27.4 7.473 7.473 19.51 7.819 27.399.834l171.186-151.519c2.35 1.181 4.92 1.783 7.493 1.783 4.073.001 8.135-1.495 11.323-4.452zm62.159 18.689c5.529 11.1 9.716 22.748 12.506 34.762l-64.035-64.035 16.945-16.946 4.75 4.746c12.148 12.156 22.185 26.109 29.834 41.473zm-25.302-128.764c.195-.096.427-.058.577.094l8.502 8.501c.152.152.189.384.095.576l-13.758 27.681-23.095-23.096zm-154.316-28.606c28.673 6.719 55.327 21.447 76.196 42.309l4.749 4.75-16.948 16.948zm64.441 87.136c-.65-.65-.65-1.709 0-2.359l40.519-40.518c.651-.651 1.711-.648 2.358 0l40.518 40.518c.65.651.65 1.709 0 2.36l-40.517 40.517c-.649.65-1.71.651-2.359.001zm166.75 168.505c2.93 2.929 7.678 2.929 10.607 0s2.929-7.678 0-10.606l-19.24-19.24c-2.93-2.929-7.678-2.929-10.607 0s-2.929 7.678 0 10.606zm30.949-34.008c3.875 1.125 8.125-1.094 9.289-5.121 1.15-3.979-1.142-8.138-5.121-9.289l-29.848-8.634c-3.979-1.149-8.137 1.141-9.289 5.121-1.15 3.979 1.142 8.138 5.121 9.289zm-72.273 19.383c-3.979 1.151-6.271 5.31-5.121 9.289l8.634 29.847c1.157 4.024 5.397 6.246 9.289 5.121 3.979-1.151 6.271-5.31 5.121-9.289l-8.634-29.847c-1.153-3.981-5.309-6.271-9.289-5.121zm131.508 65.9c0 4.142 3.358 7.5 7.5 7.5s7.5-3.358 7.5-7.5-3.358-7.5-7.5-7.5-7.5 3.358-7.5 7.5zm-37.174 49.5c0-18.196-14.804-33-33-33s-33 14.804-33 33 14.804 33 33 33 33-14.804 33-33zm-51 0c0-9.925 8.075-18 18-18s18 8.075 18 18-8.075 18-18 18-18-8.075-18-18zm141.5-154.5c0-12.407-10.094-22.5-22.5-22.5s-22.5 10.093-22.5 22.5 10.094 22.5 22.5 22.5 22.5-10.094 22.5-22.5zm-22.5 7.5c-4.136 0-7.5-3.364-7.5-7.5s3.364-7.5 7.5-7.5 7.5 3.364 7.5 7.5-3.365 7.5-7.5 7.5zm-120.826 247.5c0 4.142 3.358 7.5 7.5 7.5s7.5-3.358 7.5-7.5-3.358-7.5-7.5-7.5-7.5 3.358-7.5 7.5zm109.326-442.5c-12.406 0-22.5 10.093-22.5 22.5s10.094 22.5 22.5 22.5 22.5-10.093 22.5-22.5-10.094-22.5-22.5-22.5zm0 30c-4.136 0-7.5-3.364-7.5-7.5s3.364-7.5 7.5-7.5 7.5 3.364 7.5 7.5-3.365 7.5-7.5 7.5zm58 152.535c4.143 0 7.5-3.358 7.5-7.5v-184.535c0-12.407-10.094-22.5-22.5-22.5h-150.868c-13.629-.149-20.999 16.038-12.59 26.3l78.032 96.927c2.244 2.788 3.344 6.288 3.095 9.858l-9.593 138.11c-.373 5.374-3.692 10.003-8.662 12.081l-100.387 41.966c-13.386 5.596-20.555 19.875-17.046 33.951l11.682 46.877c1.233 4.949-.302 10.201-4.007 13.706l-67.971 64.318c-10.469 9.927-3.286 27.908 11.11 27.905h267.203c12.406 0 22.5-10.093 22.5-22.5v-247.5c0-4.142-3.357-7.5-7.5-7.5s-7.5 3.358-7.5 7.5v247.5c0 4.136-3.364 7.5-7.5 7.5h-267.201c-.88.089-1.489-1.482-.8-2.009l67.97-64.318c7.63-7.219 10.792-18.036 8.252-28.229l-11.682-46.878c-1.703-6.834 1.777-13.768 8.276-16.484l100.387-41.966c10.236-4.279 17.073-13.813 17.842-24.881l9.592-138.109c.513-7.353-1.752-14.564-6.375-20.305l-78.032-96.927c-.574-.577.124-1.975.906-1.894h150.867c4.136 0 7.5 3.364 7.5 7.5v184.535c0 4.143 3.357 7.501 7.5 7.501zm-58 237.465c12.406 0 22.5-10.093 22.5-22.5s-10.094-22.5-22.5-22.5-22.5 10.093-22.5 22.5 10.093 22.5 22.5 22.5zm0-30c4.136 0 7.5 3.364 7.5 7.5s-3.364 7.5-7.5 7.5-7.5-3.364-7.5-7.5 3.364-7.5 7.5-7.5zm10.674-277.5c0 4.142 3.358 7.5 7.5 7.5s7.5-3.358 7.5-7.5-3.358-7.5-7.5-7.5-7.5 3.358-7.5 7.5z"/></svg>