<svg width="66" height="66" viewBox="0 0 66 66" fill="none" xmlns="http://www.w3.org/2000/svg">
<circle cx="33" cy="33" r="33" fill="#E4E4E4"/>
<g clip-path="url(#clip0)">
<path d="M30.5566 25.557L36.1005 31.1011C36.34 31.3406 36.7039 31.3978 37.0034 31.2491C37.3051 31.0994 37.4773 30.7745 37.4314 30.4393C37.238 29.0496 36.8229 27.7083 36.1974 26.4527C35.5728 25.1979 34.753 24.0582 33.7605 23.065L33.4061 22.7109L33.6152 22.5017C34.0341 22.0828 34.0903 21.4374 33.7855 20.9566L34.9942 18.5248C35.2156 18.0794 35.128 17.5437 34.7762 17.1921L34.1418 16.5577C33.7902 16.2061 33.2546 16.1183 32.809 16.3397L30.3772 17.5484C29.8964 17.2437 29.251 17.2999 28.8321 17.7188L28.6232 17.9277L28.2687 17.5732C26.2878 15.593 23.6689 14.2894 20.8919 13.9022C20.5402 13.8532 20.1987 14.0497 20.0622 14.3805C19.941 14.6744 20.0084 15.0093 20.233 15.2325L25.7769 20.7772C25.4167 21.1654 25.35 21.7284 25.5776 22.1814L21.9677 26.2599C21.7628 26.4914 21.7844 26.845 22.0159 27.05C22.2466 27.2541 22.6005 27.2339 22.806 27.0017L26.3285 23.022L28.3119 25.0053L15.6349 36.2258C15.4875 36.3564 15.263 36.3495 15.1237 36.2102C14.9844 36.0709 14.9775 35.8464 15.1081 35.6988L21.0771 28.955C21.2819 28.7235 21.2603 28.3698 21.0288 28.1649C20.7974 27.96 20.4436 27.9816 20.2387 28.2131L14.2699 34.9569C13.7478 35.5466 13.7751 36.4448 14.3321 37.0017C14.8898 37.5594 15.7881 37.5852 16.3768 37.0639L29.1523 25.7562C29.3277 25.8443 29.5195 25.8892 29.7115 25.8892C30.0155 25.8893 30.3186 25.7777 30.5566 25.557V25.557ZM35.1954 26.9517C35.6081 27.7801 35.9205 28.6494 36.1288 29.546L31.3499 24.7671L32.6145 23.5024L32.9689 23.8566C33.8755 24.7638 34.6246 25.8051 35.1954 26.9517V26.9517ZM33.3072 17.3422C33.3217 17.335 33.339 17.3378 33.3502 17.3492L33.9847 17.9836C33.9961 17.995 33.9988 18.0123 33.9918 18.0266L32.9651 20.0924L31.2415 18.3688L33.3072 17.3422ZM21.7907 15.2073C23.9305 15.7088 25.9197 16.8079 27.4771 18.3648L27.8315 18.7193L26.5667 19.9841L21.7907 15.2073ZM26.5999 21.7102C26.5513 21.6617 26.5513 21.5827 26.5999 21.5342L29.6238 18.5103C29.6723 18.4618 29.7515 18.462 29.7997 18.5103L32.8236 21.5342C32.8721 21.5828 32.8721 21.6617 32.8236 21.7103L29.7998 24.7341C29.7514 24.7826 29.6722 24.7826 29.6238 24.7341L26.5999 21.7102ZM39.0443 34.2856C39.263 34.5042 39.6173 34.5042 39.8359 34.2856C40.0545 34.0671 40.0545 33.7126 39.8359 33.4941L38.4 32.0583C38.1814 31.8397 37.827 31.8397 37.6084 32.0583C37.3898 32.2768 37.3898 32.6313 37.6084 32.8498L39.0443 34.2856ZM41.354 31.7476C41.6432 31.8316 41.9604 31.666 42.0472 31.3655C42.1331 31.0685 41.962 30.7581 41.6651 30.6722L39.4375 30.0279C39.1406 29.9421 38.8303 30.113 38.7443 30.4101C38.6585 30.707 38.8295 31.0174 39.1265 31.1033L41.354 31.7476ZM35.9603 33.1942C35.6634 33.2801 35.4923 33.5905 35.5781 33.8874L36.2225 36.1149C36.3088 36.4152 36.6253 36.581 36.9157 36.4971C37.2127 36.4112 37.3837 36.1008 37.2979 35.8038L36.6535 33.5764C36.5675 33.2793 36.2573 33.1084 35.9603 33.1942ZM45.7747 38.1123C45.7747 38.4214 46.0253 38.672 46.3344 38.672C46.6435 38.672 46.8941 38.4214 46.8941 38.1123C46.8941 37.8031 46.6435 37.5525 46.3344 37.5525C46.0253 37.5525 45.7747 37.8031 45.7747 38.1123ZM43.0004 41.8064C43.0004 40.4485 41.8956 39.3436 40.5376 39.3436C39.1797 39.3436 38.0749 40.4485 38.0749 41.8064C38.0749 43.1644 39.1797 44.2692 40.5376 44.2692C41.8956 44.2692 43.0004 43.1644 43.0004 41.8064ZM39.1943 41.8064C39.1943 41.0657 39.7969 40.4631 40.5376 40.4631C41.2783 40.4631 41.881 41.0657 41.881 41.8064C41.881 42.5471 41.2783 43.1497 40.5376 43.1497C39.7969 43.1497 39.1943 42.5471 39.1943 41.8064ZM49.7544 30.2762C49.7544 29.3503 49.0011 28.597 48.0752 28.597C47.1493 28.597 46.396 29.3503 46.396 30.2762C46.396 31.2021 47.1493 31.9553 48.0752 31.9553C49.0011 31.9553 49.7544 31.202 49.7544 30.2762ZM48.0752 30.8359C47.7665 30.8359 47.5155 30.5848 47.5155 30.2762C47.5155 29.9675 47.7665 29.7165 48.0752 29.7165C48.3839 29.7165 48.6349 29.9675 48.6349 30.2762C48.6349 30.5848 48.3838 30.8359 48.0752 30.8359ZM39.058 49.3067C39.058 49.6158 39.3086 49.8664 39.6178 49.8664C39.9269 49.8664 40.1775 49.6158 40.1775 49.3067C40.1775 48.9975 39.9269 48.7469 39.6178 48.7469C39.3086 48.7469 39.058 48.9975 39.058 49.3067ZM47.217 16.2832C46.2911 16.2832 45.5378 17.0364 45.5378 17.9623C45.5378 18.8883 46.2911 19.6415 47.217 19.6415C48.1428 19.6415 48.8961 18.8883 48.8961 17.9623C48.8961 17.0364 48.1428 16.2832 47.217 16.2832ZM47.217 18.5221C46.9083 18.5221 46.6572 18.271 46.6572 17.9623C46.6572 17.6537 46.9083 17.4026 47.217 17.4026C47.5256 17.4026 47.7767 17.6537 47.7767 17.9623C47.7767 18.271 47.5256 18.5221 47.217 18.5221ZM51.5455 29.9056C51.8547 29.9056 52.1052 29.655 52.1052 29.3459V15.5742C52.1052 14.6483 51.3519 13.895 50.426 13.895H39.1668C38.1497 13.8839 37.5997 15.0919 38.2273 15.8578L44.0507 23.0914C44.2182 23.2995 44.3003 23.5607 44.2817 23.8271L43.5658 34.1341C43.538 34.5352 43.2903 34.8807 42.9194 35.0357L35.4275 38.1676C34.4285 38.5853 33.8935 39.6509 34.1554 40.7014L35.0272 44.1998C35.1192 44.5691 35.0047 44.9611 34.7282 45.2226L29.6556 50.0227C28.8743 50.7635 29.4103 52.1054 30.4847 52.1052H50.4259C51.3517 52.1052 52.105 51.352 52.105 50.426V31.9553C52.105 31.6462 51.8545 31.3955 51.5453 31.3955C51.2361 31.3955 50.9856 31.6462 50.9856 31.9553V50.426C50.9856 50.7347 50.7345 50.9857 50.4259 50.9857H30.4848C30.4192 50.9924 30.3737 50.8751 30.4251 50.8358L35.4977 46.0358C36.0671 45.4971 36.3031 44.6898 36.1135 43.9291L35.2417 40.4306C35.1146 39.9206 35.3743 39.4031 35.8593 39.2004L43.3512 36.0685C44.1151 35.7492 44.6253 35.0377 44.6827 34.2117L45.3985 23.9047C45.4368 23.3559 45.2678 22.8178 44.9228 22.3894L39.0993 15.1558C39.0565 15.1127 39.1086 15.0084 39.1669 15.0144H50.426C50.7347 15.0144 50.9857 15.2655 50.9857 15.5741V29.3459C50.9857 29.655 51.2363 29.9056 51.5455 29.9056V29.9056ZM47.217 47.6275C48.1428 47.6275 48.8961 46.8743 48.8961 45.9483C48.8961 45.0224 48.1428 44.2692 47.217 44.2692C46.2911 44.2692 45.5378 45.0224 45.5378 45.9483C45.5378 46.8743 46.291 47.6275 47.217 47.6275ZM47.217 45.3886C47.5256 45.3886 47.7767 45.6397 47.7767 45.9483C47.7767 46.257 47.5256 46.5081 47.217 46.5081C46.9083 46.5081 46.6572 46.257 46.6572 45.9483C46.6572 45.6397 46.9083 45.3886 47.217 45.3886ZM48.0136 24.679C48.0136 24.9881 48.2642 25.2387 48.5733 25.2387C48.8824 25.2387 49.133 24.9881 49.133 24.679C49.133 24.3699 48.8824 24.1193 48.5733 24.1193C48.2642 24.1193 48.0136 24.3699 48.0136 24.679Z" fill="black"/>
</g>
<defs>
<clipPath id="clip0">
<rect width="38.2105" height="38.2105" fill="white" transform="translate(13.8947 13.8947)"/>
</clipPath>
</defs>
</svg>
